<mxfile host="app.diagrams.net" modified="2024-06-01T10:46:57.367Z" agent="Mozilla/5.0 (Windows NT 10.0; Win64; x64; rv:126.0) Gecko/20100101 Firefox/126.0" etag="XiWQVhG1pbs6F8vf0uUW" version="24.4.13" type="device">
  <diagram name="Seite-1" id="-WTDw6jfjXFhkhXZn95R">
    <mxGraphModel dx="1235" dy="667" grid="1" gridSize="10" guides="1" tooltips="1" connect="1" arrows="1" fold="1" page="1" pageScale="1" pageWidth="827" pageHeight="1169" math="0" shadow="0">
      <root>
        <mxCell id="0" />
        <mxCell id="1" parent="0" />
        <mxCell id="YuiiEESTl5PAIqSx9QMf-1" value="Baum" style="swimlane;fontStyle=1;align=center;verticalAlign=top;childLayout=stackLayout;horizontal=1;startSize=26;horizontalStack=0;resizeParent=1;resizeParentMax=0;resizeLast=0;collapsible=1;marginBottom=0;points=[[0,0,0,0,0],[0,0.25,0,0,0],[0,0.5,0,0,0],[0,0.75,0,0,0],[0,1,0,0,0],[0.13,1,0,0,0],[0.25,0,0,0,0],[0.25,1,0,0,0],[0.38,1,0,0,0],[0.5,0,0,0,0],[0.5,1,0,0,0],[0.63,1,0,0,0],[0.75,0,0,0,0],[0.75,1,0,0,0],[0.88,1,0,0,0],[1,0,0,0,0],[1,0.25,0,0,0],[1,0.5,0,0,0],[1,0.75,0,0,0],[1,1,0,0,0]];" vertex="1" parent="1">
          <mxGeometry x="200" y="40" width="160" height="138" as="geometry" />
        </mxCell>
        <mxCell id="YuiiEESTl5PAIqSx9QMf-2" value="höhe" style="text;strokeColor=none;fillColor=none;align=left;verticalAlign=top;spacingLeft=4;spacingRight=4;overflow=hidden;rotatable=0;points=[[0,0.5],[1,0.5]];portConstraint=eastwest;" vertex="1" parent="YuiiEESTl5PAIqSx9QMf-1">
          <mxGeometry y="26" width="160" height="26" as="geometry" />
        </mxCell>
        <mxCell id="YuiiEESTl5PAIqSx9QMf-3" value="alter" style="text;strokeColor=none;fillColor=none;align=left;verticalAlign=top;spacingLeft=4;spacingRight=4;overflow=hidden;rotatable=0;points=[[0,0.5],[1,0.5]];portConstraint=eastwest;" vertex="1" parent="YuiiEESTl5PAIqSx9QMf-1">
          <mxGeometry y="52" width="160" height="26" as="geometry" />
        </mxCell>
        <mxCell id="YuiiEESTl5PAIqSx9QMf-4" value="" style="line;strokeWidth=1;fillColor=none;align=left;verticalAlign=middle;spacingTop=-1;spacingLeft=3;spacingRight=3;rotatable=0;labelPosition=right;points=[];portConstraint=eastwest;" vertex="1" parent="YuiiEESTl5PAIqSx9QMf-1">
          <mxGeometry y="78" width="160" height="8" as="geometry" />
        </mxCell>
        <mxCell id="YuiiEESTl5PAIqSx9QMf-6" value="wachsen()" style="text;strokeColor=none;fillColor=none;align=left;verticalAlign=top;spacingLeft=4;spacingRight=4;overflow=hidden;rotatable=0;points=[[0,0.5],[1,0.5]];portConstraint=eastwest;" vertex="1" parent="YuiiEESTl5PAIqSx9QMf-1">
          <mxGeometry y="86" width="160" height="26" as="geometry" />
        </mxCell>
        <mxCell id="YuiiEESTl5PAIqSx9QMf-5" value="winterfestMachen()" style="text;strokeColor=none;fillColor=none;align=left;verticalAlign=top;spacingLeft=4;spacingRight=4;overflow=hidden;rotatable=0;points=[[0,0.5,0,0,0],[0.13,1,0,0,0],[0.25,1,0,0,0],[0.38,1,0,0,0],[0.5,1,0,0,0],[0.63,1,0,0,0],[0.75,1,0,0,0],[0.88,1,0,0,0],[1,0.5,0,0,0]];portConstraint=eastwest;" vertex="1" parent="YuiiEESTl5PAIqSx9QMf-1">
          <mxGeometry y="112" width="160" height="26" as="geometry" />
        </mxCell>
        <mxCell id="YuiiEESTl5PAIqSx9QMf-7" value="Laubbaum" style="swimlane;fontStyle=1;align=center;verticalAlign=top;childLayout=stackLayout;horizontal=1;startSize=26;horizontalStack=0;resizeParent=1;resizeParentMax=0;resizeLast=0;collapsible=1;marginBottom=0;points=[[0,0,0,0,0],[0,0.25,0,0,0],[0,0.5,0,0,0],[0,0.75,0,0,0],[0,1,0,0,0],[0.13,0,0,0,0],[0.25,0,0,0,0],[0.25,1,0,0,0],[0.38,0,0,0,0],[0.5,0,0,0,0],[0.5,1,0,0,0],[0.63,0,0,0,0],[0.75,0,0,0,0],[0.75,1,0,0,0],[0.88,0,0,0,0],[1,0,0,0,0],[1,0.25,0,0,0],[1,0.5,0,0,0],[1,0.75,0,0,0],[1,1,0,0,0]];" vertex="1" parent="1">
          <mxGeometry x="100" y="240" width="160" height="80" as="geometry" />
        </mxCell>
        <mxCell id="YuiiEESTl5PAIqSx9QMf-12" value="winterfestMachen()" style="text;strokeColor=none;fillColor=none;align=left;verticalAlign=top;spacingLeft=4;spacingRight=4;overflow=hidden;rotatable=0;points=[[0,0.5],[1,0.5]];portConstraint=eastwest;" vertex="1" parent="YuiiEESTl5PAIqSx9QMf-7">
          <mxGeometry y="26" width="160" height="54" as="geometry" />
        </mxCell>
        <mxCell id="YuiiEESTl5PAIqSx9QMf-13" value="Nadelbaum" style="swimlane;fontStyle=1;align=center;verticalAlign=top;childLayout=stackLayout;horizontal=1;startSize=26;horizontalStack=0;resizeParent=1;resizeParentMax=0;resizeLast=0;collapsible=1;marginBottom=0;points=[[0,0,0,0,0],[0,0.25,0,0,0],[0,0.5,0,0,0],[0,0.75,0,0,0],[0,1,0,0,0],[0.13,0,0,0,0],[0.25,0,0,0,0],[0.25,1,0,0,0],[0.38,0,0,0,0],[0.5,0,0,0,0],[0.5,1,0,0,0],[0.63,0,0,0,0],[0.75,0,0,0,0],[0.75,1,0,0,0],[0.88,0,0,0,0],[1,0,0,0,0],[1,0.25,0,0,0],[1,0.5,0,0,0],[1,0.75,0,0,0],[1,1,0,0,0]];" vertex="1" parent="1">
          <mxGeometry x="300" y="240" width="160" height="80" as="geometry" />
        </mxCell>
        <mxCell id="YuiiEESTl5PAIqSx9QMf-16" value="Lärche" style="swimlane;fontStyle=1;align=center;verticalAlign=top;childLayout=stackLayout;horizontal=1;startSize=26;horizontalStack=0;resizeParent=1;resizeParentMax=0;resizeLast=0;collapsible=1;marginBottom=0;" vertex="1" parent="1">
          <mxGeometry x="300" y="380" width="160" height="80" as="geometry" />
        </mxCell>
        <mxCell id="YuiiEESTl5PAIqSx9QMf-19" value="winterfestMachen()" style="text;strokeColor=none;fillColor=none;align=left;verticalAlign=top;spacingLeft=4;spacingRight=4;overflow=hidden;rotatable=0;points=[[0,0.5],[1,0.5]];portConstraint=eastwest;" vertex="1" parent="YuiiEESTl5PAIqSx9QMf-16">
          <mxGeometry y="26" width="160" height="54" as="geometry" />
        </mxCell>
        <mxCell id="YuiiEESTl5PAIqSx9QMf-21" value="" style="endArrow=block;html=1;rounded=0;endFill=0;endSize=10;entryX=0.25;entryY=1;entryDx=0;entryDy=0;entryPerimeter=0;" edge="1" parent="1" target="YuiiEESTl5PAIqSx9QMf-5">
          <mxGeometry width="50" height="50" relative="1" as="geometry">
            <mxPoint x="240" y="240" as="sourcePoint" />
            <mxPoint x="230" y="190" as="targetPoint" />
          </mxGeometry>
        </mxCell>
        <mxCell id="YuiiEESTl5PAIqSx9QMf-22" value="" style="endArrow=block;html=1;rounded=0;endFill=0;endSize=10;entryX=0.75;entryY=1;entryDx=0;entryDy=0;entryPerimeter=0;" edge="1" parent="1" target="YuiiEESTl5PAIqSx9QMf-5">
          <mxGeometry width="50" height="50" relative="1" as="geometry">
            <mxPoint x="320" y="240" as="sourcePoint" />
            <mxPoint x="241" y="178" as="targetPoint" />
          </mxGeometry>
        </mxCell>
        <mxCell id="YuiiEESTl5PAIqSx9QMf-23" value="" style="endArrow=block;html=1;rounded=0;endFill=0;endSize=10;entryX=0.5;entryY=1;entryDx=0;entryDy=0;entryPerimeter=0;exitX=0.5;exitY=0;exitDx=0;exitDy=0;" edge="1" parent="1" source="YuiiEESTl5PAIqSx9QMf-16" target="YuiiEESTl5PAIqSx9QMf-13">
          <mxGeometry width="50" height="50" relative="1" as="geometry">
            <mxPoint x="351" y="250" as="sourcePoint" />
            <mxPoint x="351" y="188" as="targetPoint" />
          </mxGeometry>
        </mxCell>
        <mxCell id="YuiiEESTl5PAIqSx9QMf-25" value="1" style="ellipse;whiteSpace=wrap;html=1;fontColor=#FFFFFF;strokeColor=#006666;strokeWidth=2;fontStyle=1;fillColor=#006666;" vertex="1" parent="1">
          <mxGeometry x="160" y="158" width="20" height="20" as="geometry" />
        </mxCell>
        <mxCell id="YuiiEESTl5PAIqSx9QMf-26" value="2" style="ellipse;whiteSpace=wrap;html=1;fontColor=#FFFFFF;strokeColor=#006666;strokeWidth=2;fontStyle=1;fillColor=#006666;" vertex="1" parent="1">
          <mxGeometry x="60" y="270" width="20" height="20" as="geometry" />
        </mxCell>
        <mxCell id="YuiiEESTl5PAIqSx9QMf-27" value="3" style="ellipse;whiteSpace=wrap;html=1;fontColor=#FFFFFF;strokeColor=#006666;strokeWidth=2;fontStyle=1;fillColor=#006666;" vertex="1" parent="1">
          <mxGeometry x="260" y="410" width="20" height="20" as="geometry" />
        </mxCell>
      </root>
    </mxGraphModel>
  </diagram>
</mxfile>
